<svg width="32" height="32" viewBox="0 0 32 32" fill="none" xmlns="http://www.w3.org/2000/svg">
<rect width="32" height="32" rx="4" fill="#222222"/>
<path d="M16 11.1429C16.8571 7.75929 20.0945 6.03161 27.1429 6.00001C27.2555 5.99958 27.3672 6.02146 27.4714 6.06439C27.5756 6.10731 27.6702 6.17043 27.7499 6.25011C27.8296 6.32979 27.8927 6.42445 27.9356 6.52863C27.9785 6.63282 28.0004 6.74447 28 6.85715V22.2857C28 22.513 27.9097 22.7311 27.7489 22.8918C27.5882 23.0525 27.3702 23.1429 27.1429 23.1429C20.2857 23.1429 17.6366 24.5255 16 26.5714M16 11.1429C15.1429 7.75929 11.9055 6.03161 4.85715 6.00001C4.74447 5.99958 4.63282 6.02146 4.52863 6.06439C4.42445 6.10731 4.32979 6.17043 4.25011 6.25011C4.17043 6.32979 4.10731 6.42445 4.06439 6.52863C4.02146 6.63282 3.99958 6.74447 4.00001 6.85715V22.1823C4.00001 22.7116 4.32786 23.1429 4.85715 23.1429C11.7143 23.1429 14.373 24.5357 16 26.5714M16 11.1429V26.5714" stroke="#B32525" stroke-width="1.1" stroke-linecap="round" stroke-linejoin="round"/>
<path d="M13.708 19.1914C13.7256 19.2969 13.6553 19.3936 13.4971 19.4814C13.3857 19.5459 13.2627 19.5898 13.1279 19.6133C13.04 19.6309 12.958 19.6396 12.8818 19.6396C12.6357 19.6396 12.5156 19.5723 12.5215 19.4375C12.5508 18.5293 12.4629 17.2227 12.2578 15.5176C11.9473 16.0098 11.6191 16.6279 11.2734 17.3721C10.8984 18.1865 10.6553 18.834 10.5439 19.3145C10.5146 19.4492 10.3096 19.5342 9.92871 19.5693C9.55371 19.6045 9.36035 19.5488 9.34863 19.4023C9.30762 18.7988 9.11719 17.999 8.77734 17.0029C8.49609 16.165 8.2002 15.4941 7.88965 14.9902C7.77246 16.7715 7.72852 18.2041 7.75781 19.2881C7.76367 19.4932 7.55859 19.6133 7.14258 19.6484C7.00195 19.666 6.87891 19.6602 6.77344 19.6309C6.60938 19.5957 6.53613 19.5225 6.55371 19.4111C6.71191 18.3916 6.78809 17.3486 6.78223 16.2822L6.77344 13.1797C6.77344 12.9746 6.99609 12.8574 7.44141 12.8281C7.88672 12.8047 8.15332 12.8633 8.24121 13.0039C8.39941 13.2676 8.56348 13.6016 8.7334 14.0059C8.86816 14.3516 9.00293 14.6973 9.1377 15.043C9.34863 15.5938 9.66504 16.4199 10.0869 17.5215C10.4268 17.1289 10.7988 16.3262 11.2031 15.1133C11.5664 14.0176 11.748 13.3027 11.748 12.9688C11.748 12.8809 11.9854 12.8223 12.46 12.793C12.9287 12.7637 13.1689 12.8223 13.1807 12.9688C13.1982 13.1504 13.2686 14.1875 13.3916 16.0801C13.4795 17.334 13.585 18.3711 13.708 19.1914Z" fill="white"/>
<path d="M22.2344 12.9424C22.668 12.9424 23.0254 13.0244 23.3066 13.1885C23.5938 13.3467 23.8369 13.6133 24.0361 13.9883C24.0947 14.0938 24.1709 14.2988 24.2646 14.6035C24.3643 14.9258 24.4053 15.1279 24.3877 15.21C24.4287 15.415 24.3057 15.5703 24.0186 15.6758C23.9307 15.7051 23.8516 15.7197 23.7812 15.7197C23.6172 15.7197 23.4912 15.6348 23.4033 15.4648C23.3682 15.3945 23.333 15.2451 23.2979 15.0166C23.2686 14.8057 23.2305 14.6709 23.1836 14.6123C22.9258 14.2959 22.6094 14.1377 22.2344 14.1377C21.8594 14.1377 21.4785 14.3135 21.0918 14.665C20.6113 15.1045 20.3037 15.667 20.1689 16.3525C20.1279 16.5576 20.1074 16.7539 20.1074 16.9414C20.1074 17.3809 20.2188 17.7676 20.4414 18.1016C20.7461 18.582 21.1387 18.8633 21.6191 18.9453C21.9355 18.998 22.2754 18.9746 22.6387 18.875C23.0078 18.7695 23.3066 18.6084 23.5352 18.3916C23.6172 18.3154 23.7021 18.2773 23.79 18.2773C23.9248 18.2773 24.0566 18.3564 24.1855 18.5146C24.3145 18.667 24.3789 18.8135 24.3789 18.9541C24.3789 19.0186 24.3643 19.0859 24.335 19.1562C23.8545 19.7598 23.0635 20.0967 21.9619 20.167C21.042 20.2256 20.3154 19.8652 19.7822 19.0859C19.3311 18.4121 19.1055 17.5947 19.1055 16.6338C19.1055 15.6611 19.3779 14.8203 19.9229 14.1113C20.5205 13.332 21.291 12.9424 22.2344 12.9424Z" fill="white"/>
</svg>
